HIERARCHY
ROOT Hips
{
  OFFSET 48.0817 51.7002 -0.648874
  CHANNELS 6 Xposition Yposition Zposition Zrotation Xrotation Yrotation
  JOINT spine
  {
    OFFSET 0 8.30104 0.477351
    CHANNELS 3 Zrotation Xrotation Yrotation
    JOINT spine1
    {
      OFFSET 0 10.4565 0
      CHANNELS 3 Zrotation Xrotation Yrotation
      JOINT spine2
      {
        OFFSET 0 10.0192 0
        CHANNELS 3 Zrotation Xrotation Yrotation
        JOINT Neck
        {
          OFFSET 0 25.7235 1.22641
          CHANNELS 3 Zrotation Xrotation Yrotation
          JOINT Head
          {
            OFFSET 0 7.77175 0
            CHANNELS 3 Zrotation Xrotation Yrotation
            End Site
            {
              OFFSET 0 18.812 -6.20394
            }
          }
        }
        JOINT RightShoulder
        {
          OFFSET -4.2188 10.82 -0.587439
          CHANNELS 3 Zrotation Xrotation Yrotation
          JOINT RightArm
          {
            OFFSET 0 14.1914 0
            CHANNELS 3 Zrotation Xrotation Yrotation
            JOINT RightArmRoll
            {
              OFFSET 0 7.16408 0
              CHANNELS 3 Zrotation Xrotation Yrotation
              JOINT RightForeArm
              {
                OFFSET 0 20.8665 0
                CHANNELS 3 Zrotation Xrotation Yrotation
                JOINT RightForeArmRoll
                {
                  OFFSET 0 8.03921 0
                  CHANNELS 3 Zrotation Xrotation Yrotation
                  JOINT RightHand
                  {
                    OFFSET 0 16.133 0
                    CHANNELS 3 Zrotation Xrotation Yrotation
                    End Site
                    {
                      OFFSET 0 0 0
                    }
                  }
                }
              }
            }
          }
        }
        JOINT LeftShoulder
        {
          OFFSET 4.2188 10.82 -0.587439
          CHANNELS 3 Zrotation Xrotation Yrotation
          JOINT LeftArm
          {
            OFFSET 0 14.1914 0
            CHANNELS 3 Zrotation Xrotation Yrotation
            JOINT LeftArmRoll
            {
              OFFSET 0 7.16408 0
              CHANNELS 3 Zrotation Xrotation Yrotation
              JOINT LeftForeArm
              {
                OFFSET 0 20.8665 0
                CHANNELS 3 Zrotation Xrotation Yrotation
                JOINT LeftForeArmRoll
                {
                  OFFSET 0 8.03921 0
                  CHANNELS 3 Zrotation Xrotation Yrotation
                  JOINT LeftHand
                  {
                    OFFSET 0 16.133 0
                    CHANNELS 3 Zrotation Xrotation Yrotation
                    End Site
                    {
                      OFFSET 0 0 0
                    }
                  }
                }
              }
            }
          }
        }
      }
    }
  }
  JOINT RightUpLeg
  {
    OFFSET -7.35773 -1.34921 -1.13181
    CHANNELS 3 Zrotation Xrotation Yrotation
    JOINT RightUpLegRoll
    {
      OFFSET 0 18.9168 0
      CHANNELS 3 Zrotation Xrotation Yrotation
      JOINT RightLeg
      {
        OFFSET 0 -23.4256 0
        CHANNELS 3 Zrotation Xrotation Yrotation
        JOINT RightLegRoll
        {
          OFFSET 0 23.5023 0
          CHANNELS 3 Zrotation Xrotation Yrotation
          JOINT RightFoot
          {
            OFFSET 0 19.5617 0
            CHANNELS 3 Zrotation Xrotation Yrotation
            JOINT RightToeBase
            {
              OFFSET 0 16.3526 0
              CHANNELS 3 Zrotation Xrotation Yrotation
              End Site
              {
                OFFSET 0.00693125 7.91944 -0.912836
              }
            }
          }
        }
      }
    }
  }
  JOINT LeftUpLeg
  {
    OFFSET 7.35773 -1.34921 -1.13181
    CHANNELS 3 Zrotation Xrotation Yrotation
    JOINT LeftUpLegRoll
    {
      OFFSET 0 18.9169 0
      CHANNELS 3 Zrotation Xrotation Yrotation
      JOINT LeftLeg
      {
        OFFSET 0 23.4255 0
        CHANNELS 3 Zrotation Xrotation Yrotation
        JOINT LeftLegRoll
        {
          OFFSET 0 23.7195 0
          CHANNELS 3 Zrotation Xrotation Yrotation
          JOINT LeftFoot
          {
            OFFSET 0 19.3444 0
            CHANNELS 3 Zrotation Xrotation Yrotation
            JOINT LeftToeBase
            {
              OFFSET 0 16.3526 0
              CHANNELS 3 Zrotation Xrotation Yrotation
              End Site
              {
                OFFSET -0.0310629 7.91944 -0.912836
              }
            }
          }
        }
      }
    }
  }
}
MOTION
Frames: 7
Frame Time: 0.00208333
47.9927 52.7507 1.4947 -1.62907 -2.44286 2.20723 0.657489 2.64449 0.108029 1.33448 9.29205 0.0979657 1.33741 10.9369 0.0754458 -5.56568 1.10259 -1.3903 2.67145 -9.31843 -1.8215 57.0193 -4.03807 -2.36365 117.268 46.6188 14.1464 7.95139e-016 9.54166e-015 9.54166e-015 -4.61186 3.8681 2.06003 -4.11245e-006 8.57157e-006 -3.01123 8.02896 -4.95146 0.697682 -60.1731 -2.37233 1.60324 -105.414 34.8044 -9.04306 2.30318e-005 3.68006e-006 -8.48728e-007 -5.2725 16.0034 1.67825 4.4288e-006 2.32066e-006 3 -8.02901 -4.95148 -0.697681 94.6678 71.2039 95.908 180 7.01428e-015 178.494 -13.9912 76.9821 14.8468 -2.95271e-007 -4.48079e-006 2.43023 -33.5805 74.391 28.6766 8.12724 25.2422 -3.47798 -87.466 70.7892 -99.2916 4.54188e-006 -4.6773e-006 -1.48357 161.486 -74.2546 157.431 1.03178e-006 3.14144e-006 -2.89701 29.4704 74.1171 -27.4125 -8.23909 26.9326 3.53254 
47.9921 52.7398 1.4747 -1.61192 -2.55487 2.20117 0.6554 2.64133 0.106576 1.33071 9.28572 0.0954118 1.33366 10.9306 0.0729507 -5.64227 1.22337 -1.38407 2.72516 -9.31075 -1.82424 56.9997 -4.03548 -2.36048 117.29 46.5018 14.1462 -1.98785e-014 -3.18055e-015 -1.59028e-015 -4.55461 3.92448 2.0499 -4.11245e-006 8.57157e-006 -3.0112 8.02896 -4.95146 0.697682 -60.2449 -2.37515 1.61181 -105.333 34.71 -9.07094 2.30318e-005 3.68006e-006 -8.48728e-007 -5.31287 16.0256 1.68623 4.4288e-006 2.32066e-006 3 -8.02901 -4.95148 -0.697681 94.8671 71.2103 95.6865 180 7.01428e-015 178.493 -14.0333 76.9731 14.9017 -2.95271e-007 -4.4808e-006 2.42891 -33.5313 74.3638 28.6215 8.12722 25.2419 -3.47794 -87.7053 70.7873 -99.0473 4.54188e-006 -4.6773e-006 -1.48471 161.484 -74.2496 157.423 1.03178e-006 3.14144e-006 -2.89567 29.4469 74.0983 -27.3806 -8.23867 26.9269 3.53239 
47.9667 52.6946 1.45022 -1.59434 -2.66799 2.19543 0.653512 2.63867 0.105123 1.32717 9.28038 0.0928381 1.33014 10.9252 0.0704316 -5.72014 1.33955 -1.37749 2.77926 -9.29929 -1.8268 56.9802 -4.03358 -2.35776 117.311 46.386 14.146 -7.95139e-015 0 -0 -4.49755 3.97947 2.03974 -4.11245e-006 8.57157e-006 -3.01117 8.02896 -4.95146 0.697682 -60.3186 -2.37669 1.61977 -105.251 34.6158 -9.10052 2.30318e-005 3.68006e-006 -8.48728e-007 -5.35216 16.0479 1.69406 4.4288e-006 2.32066e-006 3 -8.02901 -4.95148 -0.697681 95.0715 71.2152 95.4594 180 7.01428e-015 178.492 -14.0749 76.965 14.9559 -2.95271e-007 -4.48079e-006 2.42772 -33.4828 74.3365 28.5667 8.12721 25.2416 -3.47789 -87.9499 70.7868 -98.797 4.54188e-006 -4.6773e-006 -1.48578 161.48 -74.2458 157.413 1.03178e-006 3.14144e-006 -2.89409 29.4207 74.0785 -27.3468 -8.23825 26.9212 3.53225 
47.9684 52.6797 1.42637 -1.57627 -2.78242 2.19013 0.651864 2.63658 0.103678 1.32394 9.27618 0.0902563 1.32693 10.921 0.0678993 -5.79946 1.45063 -1.37064 2.83387 -9.28355 -1.82924 56.9606 -4.03256 -2.35559 117.331 46.2715 14.1459 5.56597e-015 0 6.36111e-015 -4.44081 4.03297 2.0296 -4.11245e-006 8.57157e-006 -3.01115 8.02896 -4.95146 0.697682 -60.3943 -2.37661 1.62691 -105.168 34.5219 -9.13196 2.30318e-005 3.68006e-006 -8.48728e-007 -5.39025 16.0702 1.70172 4.4288e-006 2.32066e-006 3 -8.02901 -4.95148 -0.697681 95.2822 71.2183 95.2256 180 7.01428e-015 178.491 -14.1159 76.958 15.0095 -2.95271e-007 -4.48079e-006 2.42667 -33.435 74.3091 28.512 8.12719 25.2414 -3.47785 -88.2006 70.7882 -98.54 4.54188e-006 -4.6773e-006 -1.48679 161.474 -74.2436 157.402 1.03178e-006 3.14144e-006 -2.89222 29.3913 74.0576 -27.3107 -8.23784 26.9155 3.5321 
47.9615 52.6495 1.40871 -1.5579 -2.89757 2.18497 0.650443 2.63488 0.102125 1.32095 9.27277 0.0874401 1.32396 10.9176 0.065128 -5.88124 1.55513 -1.36304 2.89011 -9.26113 -1.83109 56.9417 -4.03207 -2.35381 117.349 46.1589 14.1452 7.95139e-015 6.36111e-015 1.11319e-014 -4.38386 4.08449 2.01931 -4.11245e-006 8.57157e-006 -3.01112 8.02896 -4.95146 0.697682 -60.4728 -2.37577 1.63384 -105.083 34.4279 -9.16539 2.30318e-005 3.68006e-006 -8.48728e-007 -5.42745 16.094 1.70938 4.4288e-006 2.32066e-006 3 -8.02901 -4.95148 -0.697681 95.4972 71.22 94.9873 180 7.01427e-015 178.49 -14.1552 76.9517 15.0611 -2.95271e-007 -4.48079e-006 2.42578 -33.3887 74.2819 28.4581 8.12719 25.2414 -3.47785 -88.4552 70.7909 -98.2783 4.54188e-006 -4.6773e-006 -1.48768 161.466 -74.2428 157.389 1.03178e-006 3.14144e-006 -2.89005 29.359 74.0357 -27.2725 -8.23743 26.9101 3.53198 
47.961 52.6314 1.37063 -1.53945 -3.01275 2.17955 0.649198 2.63338 0.100367 1.31811 9.26975 0.0842103 1.32115 10.9146 0.0619395 -5.96605 1.65252 -1.3543 2.94868 -9.23079 -1.83197 56.9241 -4.03168 -2.35219 117.365 46.0486 14.1434 -7.15625e-015 -6.36111e-015 -1.59028e-015 -4.32622 4.13375 2.00872 -4.11245e-006 8.57157e-006 -3.01109 8.02896 -4.95146 0.697682 -60.5544 -2.37521 1.64119 -104.994 34.333 -9.20074 2.30318e-005 3.68006e-006 -8.48728e-007 -5.46415 16.1206 1.71718 4.4288e-006 2.32066e-006 3 -8.02901 -4.95148 -0.697681 95.7141 71.2208 94.7471 180 7.01427e-015 178.488 -14.1917 76.9457 15.1096 -2.95271e-007 -4.48079e-006 2.42503 -33.3442 74.2552 28.4054 8.12719 25.2414 -3.47785 -88.7107 70.7942 -98.0148 4.54188e-006 -4.6773e-006 -1.4884 161.458 -74.2426 157.375 1.03178e-006 3.14144e-006 -2.8876 29.3244 74.013 -27.2326 -8.23706 26.9049 3.5319 
47.9656 52.6271 1.34271 -1.52088 -3.12805 2.17391 0.648104 2.63209 0.0984469 1.31539 9.26714 0.0806489 1.31847 10.912 0.0584164 -6.05336 1.74378 -1.34453 3.00905 -9.19385 -1.832 56.9077 -4.03139 -2.35073 117.379 45.9404 14.1409 7.95139e-016 3.18055e-015 6.36111e-015 -4.26799 4.181 1.99786 -4.11245e-006 8.57157e-006 -3.01107 8.02896 -4.95146 0.697682 -60.6386 -2.37482 1.64888 -104.903 34.2377 -9.23784 2.30318e-005 3.68006e-006 -8.48728e-007 -5.50029 16.1494 1.72509 4.4288e-006 2.32066e-006 3 -8.02901 -4.95148 -0.697681 95.9328 71.2207 94.5049 180 7.01426e-015 178.487 -14.2259 76.9399 15.1558 -2.95271e-007 -4.48079e-006 2.42443 -33.3014 74.2287 28.3537 8.12719 25.2414 -3.47785 -88.9675 70.7979 -97.7493 4.54188e-006 -4.6773e-006 -1.48898 161.449 -74.2429 157.362 1.03178e-006 3.14144e-006 -2.88492 29.2877 73.9897 -27.1914 -8.2367 26.9001 3.53186 
